<?xml version="1.0" standalone="no"?><!-- Generator: Gravit.io --><svg xmlns="http://www.w3.org/2000/svg" xmlns:xlink="http://www.w3.org/1999/xlink" style="isolation:isolate" width="250" height="250"><rect rx="11.25" ry="11.25" x="0" y="0" width="250" height="250" transform="matrix(1,0,0,1,0,0)" fill="rgb(255,221,1)" stroke-width="1" stroke="rgba(0,0,0,0)" stroke-linejoin="miter" stroke-linecap="square"/><path d=" M 32 60.25 L 127 27.25 L 127 228.75 L 48 184.25 L 32 60.25 Z " fill="rgb(255,255,255)" stroke-width="1" stroke="rgb(255,255,255)" stroke-linejoin="miter" stroke-linecap="square"/><path d=" M 222.5 60.25 L 127.5 27.25 L 127.5 228.75 L 206.5 184.25 L 222.5 60.25 Z " fill="rgb(255,239,132)" stroke-width="1" stroke="rgb(255,255,255)" stroke-linejoin="miter" stroke-linecap="square"/><path d=" M 99.15795488904959 208.21231171498917 C 98.74377592657476 208.21231171498917 98.32959696409992 208.10757680493808 97.95826410119143 207.88858562937665 C 96.9632824557059 207.30778294636596 96.52530010458307 206.1033314807782 96.92043635613953 205.01789695843033 L 121.78545613781887 136.6593254391629 L 91.73129763088 128.08534484816067 C 90.95530716095587 127.86635367259929 90.341179733838 127.2665082786702 90.1031458473582 126.49527848647567 C 89.869872638608 125.72404869428112 90.03649635914387 124.88140873614266 90.5601709093994 124.2625206312952 L 151.52064923687482 51.84309100868244 C 152.2442722517734 50.98140833962559 153.47252710600915 50.75765648633458 154.46274807376508 51.27657035886053 C 155.45296904152104 51.80500558684568 155.9433188476694 52.96185027513748 155.62911411751608 54.037763442026154 L 138.05269193984805 115.00776312496076 L 168.26871348959318 123.62935049325893 C 169.04946463724693 123.84834166882032 169.66359206436476 124.45294774047902 169.896865273115 125.22893821040314 C 170.1348991595948 126.00492868032728 169.95399340587014 126.85232931619534 169.42555817788497 127.46645674331322 L 100.96701242629604 207.3839537900395 C 100.50046600879564 207.92191037348383 99.83397112665222 208.21231171498917 99.15795488904959 208.21231171498917 Z  M 96.56814620414943 124.51483655096376 L 125.54639154419964 132.77461241181263 C 126.18432235996549 132.95551816553728 126.71275758795063 133.39350051666008 127.01744096264477 133.9790638774004 C 127.31736365960931 134.56938791587027 127.36020975917567 135.2549255089321 127.13169722815506 135.87381361377956 L 105.8705104877798 194.32541477775794 L 163.39377949448698 127.17605540180787 L 134.45361957627352 118.92580089641818 C 133.84425282688525 118.75441649815274 133.3300996320889 118.34499821340748 133.02065557966517 117.79275959677436 C 132.71121152724146 117.24052098014124 132.63980136129751 116.5883081311866 132.81594643729255 115.97894138179832 L 147.9549016174075 63.47342670208522 L 96.56814620414943 124.51483655096376 Z " fill-rule="evenodd" fill="rgb(0,0,0)" stroke-width="18.16915483148109" stroke="rgba(0,0,0,0)" stroke-linejoin="miter" stroke-linecap="butt"/></svg>