<?xml version="1.0" encoding="UTF-8" standalone="no"?>
<!DOCTYPE svg PUBLIC "-//W3C//DTD SVG 1.1//EN" "http://www.w3.org/Graphics/SVG/1.1/DTD/svg11.dtd">
<svg width="100%" height="100%" viewBox="0 0 256 272" version="1.1" xmlns="http://www.w3.org/2000/svg" xmlns:xlink="http://www.w3.org/1999/xlink" xml:space="preserve" style="fill-rule:evenodd;clip-rule:evenodd;stroke-linejoin:round;stroke-miterlimit:1.41421;">
    <path d="M0.1,45.522L125.908,0.697L255.104,44.725L234.185,211.175L125.908,271.141L19.325,211.972L0.1,45.522Z" style="fill:rgb(255,232,0);fill-rule:nonzero;"/>
    <path d="M255.104,44.725L125.908,0.697L125.908,271.141L234.185,211.275L255.104,44.725L255.104,44.725Z" style="fill:rgb(183,160,0);fill-rule:nonzero;"/>
    <g transform="matrix(0.448019,0,0,0.448019,126.253,127.159)">
        <g transform="matrix(1,0,0,1,-211.876,-211.876)">
            <path d="M373.392,181.353C372.192,178.153 369.392,176.153 365.792,176.153L242.992,176.153L348.592,12.553C350.592,9.353 350.192,4.953 347.392,2.153C344.592,-0.647 340.192,-0.647 336.992,1.753L52.992,225.753C50.192,227.753 49.392,231.353 50.192,234.553C50.992,237.753 54.192,239.753 57.792,239.753L175.392,239.753L66.992,411.353C64.992,414.553 65.392,418.953 68.592,421.753C70.192,422.953 72.192,423.753 73.792,423.753C75.392,423.753 77.392,423.353 78.592,422.153L370.592,190.153C373.392,188.153 374.592,184.553 373.392,181.353ZM105.792,380.553L196.592,236.153C198.192,233.753 198.192,230.553 196.992,228.153C195.392,225.753 192.992,224.153 189.792,224.153L80.992,224.153L308.992,44.153L221.392,179.753C219.792,182.153 219.792,185.353 220.992,187.753C222.192,190.153 224.992,191.753 228.192,191.753L342.992,191.753L105.792,380.553Z" style="fill-rule:nonzero;"/>
        </g>
    </g>
</svg>
